<?xml version="1.0" encoding="UTF-8"?>
<svg version="1.1" xmlns="http://www.w3.org/2000/svg" width="217" height="98">
<path d="M0 0 C71.61 0 143.22 0 217 0 C217 32.34 217 64.68 217 98 C145.39 98 73.78 98 0 98 C0 65.66 0 33.32 0 0 Z " fill="transparent" transform="translate(0,0)"/>
<path d="M0 0 C5.28 0 10.56 0 16 0 C16.33 3.63 16.66 7.26 17 11 C36.14 11 55.28 11 75 11 C77.37808221 15.75616443 76.62009256 17.99493427 75.25 22.8125 C74.97542969 23.84213867 74.97542969 23.84213867 74.6953125 24.89257812 C74.14695337 26.93347813 73.5778243 28.96726143 73 31 C72.70899414 32.02552979 72.70899414 32.02552979 72.41210938 33.07177734 C71.94385498 34.7152179 71.47229112 36.35771496 71 38 C71.66 38 72.32 38 73 38 C72.33333333 39.33333333 71.66666667 40.66666667 71 42 C70.484375 43.051875 69.96875 44.10375 69.4375 45.1875 C68 48 68 48 67 49 C65.2507128 49.09365006 63.49763746 49.11744438 61.74584961 49.11352539 C60.62476303 49.11344986 59.50367645 49.11337433 58.34861755 49.11329651 C56.51896202 49.10555458 56.51896202 49.10555458 54.65234375 49.09765625 C53.41078018 49.0962413 52.16921661 49.09482635 50.89002991 49.09336853 C47.58394509 49.08870591 44.27792854 49.07971497 40.97186279 49.06866455 C37.60038861 49.05844827 34.22890718 49.05381574 30.85742188 49.04882812 C24.23824261 49.03862279 17.61918347 49.01905106 11 49 C10.505 28.21 10.505 28.21 10 7 C7.03 7 4.06 7 1 7 C0.34 6.34 -0.32 5.68 -1 5 C-0.67 3.35 -0.34 1.7 0 0 Z " fill="#FD7414" transform="translate(50,17)"/>
<path d="M0 0 C2.51282698 0.5997694 4.4218224 0.07227877 6.8984375 -0.546875 C7.85309533 1.62280189 8.04244962 3.01641293 7.296875 5.27734375 C6.53973365 7.0215993 5.72234552 8.73939631 4.8984375 10.453125 C2.5234375 10.203125 2.5234375 10.203125 -0.1015625 9.453125 C-1.4140625 7.390625 -1.4140625 7.390625 -2.1015625 5.453125 C-4.02465672 5.49268398 -4.02465672 5.49268398 -6.1015625 6.453125 C-9.34680466 11.20508673 -9.38799616 14.91540755 -9.1015625 20.453125 C-5.17080606 19.87859754 -5.17080606 19.87859754 -2.1015625 17.453125 C0.5234375 17.828125 0.5234375 17.828125 2.8984375 18.453125 C1.37955494 22.31937152 -0.51098832 24.35862339 -4.1015625 26.453125 C-8.75351206 27.14938719 -12.74585059 27.01800496 -17.1015625 25.203125 C-20.56841694 22.16962736 -21.01449627 20.32378733 -21.4765625 15.703125 C-21.33527075 10.96985142 -19.83091389 7.29632384 -17.1015625 3.453125 C-12.05940946 -1.23724993 -6.50236076 -1.69206414 0 0 Z " fill="#FFF8F4" transform="translate(93.1015625,33.546875)"/>
<path d="M0 0 C2.0625 1.5625 2.0625 1.5625 3.0625 2.5625 C2.66091673 6.64526326 2.21397536 10.61458447 1.0625 14.5625 C1.7225 14.5625 2.3825 14.5625 3.0625 14.5625 C1.1875 18.4375 1.1875 18.4375 0.0625 19.5625 C-5.46691176 19.79779412 -5.46691176 19.79779412 -7.9375 18.5625 C-7.9375 17.9025 -7.9375 17.2425 -7.9375 16.5625 C-8.659375 17.0575 -9.38125 17.5525 -10.125 18.0625 C-13.136057 19.66839707 -14.59335985 20.09052213 -17.9375 19.5625 C-19.75 18.4375 -19.75 18.4375 -20.9375 16.5625 C-21.375 13.5625 -21.375 13.5625 -20.9375 10.5625 C-18.01369215 7.73279171 -15.68747435 7.13815621 -11.6875 6.875 C-10.79546875 6.80925781 -9.9034375 6.74351563 -8.984375 6.67578125 C-8.30890625 6.63839844 -7.6334375 6.60101563 -6.9375 6.5625 C-6.6075 4.9125 -6.2775 3.2625 -5.9375 1.5625 C-6.5975 1.5625 -7.2575 1.5625 -7.9375 1.5625 C-8.2675 2.8825 -8.5975 4.2025 -8.9375 5.5625 C-10.9175 5.5625 -12.8975 5.5625 -14.9375 5.5625 C-15.2675 3.9125 -15.5975 2.2625 -15.9375 0.5625 C-10.60426472 -2.10411764 -5.38244958 -2.63396469 0 0 Z " fill="#110903" transform="translate(119.9375,40.4375)"/>
<path d="M0 0 C3.0625 0.3125 3.0625 0.3125 4.9375 1.6875 C6.0625 3.3125 6.0625 3.3125 6.0625 5.3125 C6.7225 5.3125 7.3825 5.3125 8.0625 5.3125 C8.7225 3.6625 9.3825 2.0125 10.0625 0.3125 C12.5375 0.8075 12.5375 0.8075 15.0625 1.3125 C15.6875 3.6875 15.6875 3.6875 16.0625 6.3125 C13.70296906 8.67203094 12.28354383 8.80391413 9.0625 9.3125 C9.84380071 11.80802484 9.84380071 11.80802484 11.0625 14.3125 C12.0525 14.6425 13.0425 14.9725 14.0625 15.3125 C12.69266497 18.47365776 12.0734362 19.3052092 9.0625 21.3125 C6.08125347 21.68515582 4.67505402 21.77719615 2.25 19.9375 C1.0625 18.3125 1.0625 18.3125 1.0625 16.3125 C0.4025 16.3125 -0.2575 16.3125 -0.9375 16.3125 C-1.9275 18.7875 -1.9275 18.7875 -2.9375 21.3125 C-4.5875 20.9825 -6.2375 20.6525 -7.9375 20.3125 C-8.5625 17.9375 -8.5625 17.9375 -8.9375 15.3125 C-8.2775 14.6525 -7.6175 13.9925 -6.9375 13.3125 C-5.6175 13.3125 -4.2975 13.3125 -2.9375 13.3125 C-2.9375 11.0025 -2.9375 8.6925 -2.9375 6.3125 C-4.2575 6.3125 -5.5775 6.3125 -6.9375 6.3125 C-4.20018657 0.44682836 -4.20018657 0.44682836 0 0 Z " fill="#0C0A0D" transform="translate(187.9375,38.6875)"/>
<path d="M0 0 C2.18839268 0 4.37994218 -0.02780065 6.5625 -0.1875 C9 0 9 0 10.875 1.1875 C12 3 12 3 11.75 5.625 C11 8 11 8 10 9 C7.625 9.25 7.625 9.25 5 9 C3.3359375 7.484375 3.3359375 7.484375 2 6 C1.4618032 7.36829696 0.94527591 8.74512465 0.4375 10.125 C0.14746094 10.89070313 -0.14257812 11.65640625 -0.44140625 12.4453125 C-1.288206 15.5604843 -1.288206 15.5604843 0 21 C-4.62 21 -9.24 21 -14 21 C-13.54625 19.68 -13.0925 18.36 -12.625 17 C-9.94582193 9.1606752 -9.94582193 9.1606752 -9 1 C-6.03325429 -0.48337286 -3.28247334 -0.05659437 0 0 Z " fill="#0E0A0B" transform="translate(137,39)"/>
<path d="M0 0 C1.3921875 0.0928125 1.3921875 0.0928125 2.8125 0.1875 C2.8125 1.5075 2.8125 2.8275 2.8125 4.1875 C3.8025 4.5175 4.7925 4.8475 5.8125 5.1875 C5.4825 6.1775 5.1525 7.1675 4.8125 8.1875 C3.4925 8.1875 2.1725 8.1875 0.8125 8.1875 C-0.1775 12.1475 -1.1675 16.1075 -2.1875 20.1875 C-0.8675 20.1875 0.4525 20.1875 1.8125 20.1875 C1 22.125 1 22.125 -0.1875 24.1875 C-3.70809568 25.36103189 -6.493993 25.38896402 -10.1875 25.1875 C-12.1875 23.1875 -12.1875 23.1875 -12.4375 20 C-12.18332078 16.12376683 -11.34656219 12.88201072 -10.1875 9.1875 C-10.1875 8.5275 -10.1875 7.8675 -10.1875 7.1875 C-10.8475 7.1875 -11.5075 7.1875 -12.1875 7.1875 C-12.1875 6.5275 -12.1875 5.8675 -12.1875 5.1875 C-11.259375 4.919375 -10.33125 4.65125 -9.375 4.375 C-6.22664106 3.47539995 -6.22664106 3.47539995 -4.6875 1.5625 C-3.1875 0.1875 -3.1875 0.1875 0 0 Z " fill="#09080C" transform="translate(161.1875,34.8125)"/>
<path d="M0 0 C4.25331827 0.86802414 6.18199992 2.40158324 9.0625 5.625 C9.83402986 9.94556721 9.58997866 11.81619939 7.1875 15.5 C4.68795713 17.99954287 3.74074042 18.53456794 0.25 19 C-2.9375 18.625 -2.9375 18.625 -5.8125 16.625 C-8.18016331 13.2824165 -8.69476358 11.56486585 -8.421875 7.5625 C-7.28464708 3.01358834 -4.4078842 0.9378477 0 0 Z " fill="#FF791C" transform="translate(67.9375,67.375)"/>
<path d="M0 0 C3 2.0625 3 2.0625 5 5 C5.625 8.5 5.625 8.5 5 12 C2.40783917 15.69186542 0.95850936 16.82883761 -3.5 17.625 C-7 17 -7 17 -9.9375 15 C-12.79117716 10.84919686 -12.7099846 8.9698922 -12 4 C-9.21741025 -0.63764958 -5.03817252 -1.13733003 0 0 Z " fill="#FF791C" transform="translate(97,69)"/>
<path d="M0 0 C0.77943466 0.00222061 1.55886932 0.00444122 2.36192322 0.00672913 C3.68317955 0.00684242 3.68317955 0.00684242 5.03112793 0.00695801 C5.98841293 0.01211929 6.94569794 0.01728058 7.93199158 0.02259827 C9.39480812 0.02472069 9.39480812 0.02472069 10.88717651 0.02688599 C14.01542675 0.03250319 17.14360656 0.04505859 20.27183533 0.05775452 C22.38706867 0.0627673 24.50230313 0.06733059 26.61753845 0.07142639 C31.81482829 0.0824782 37.01207678 0.09923305 42.20933533 0.12025452 C41.87933533 1.77025452 41.54933533 3.42025452 41.20933533 5.12025452 C27.01933533 5.12025452 12.82933533 5.12025452 -1.79066467 5.12025452 C-2.12066467 3.80025452 -2.45066467 2.48025452 -2.79066467 1.12025452 C-1.79066467 0.12025452 -1.79066467 0.12025452 0 0 Z " fill="#FF7414" transform="translate(14.790664672851563,46.87974548339844)"/>
<path d="M0 0 C0.66 0.66 1.32 1.32 2 2 C1.72265625 4.16796875 1.72265625 4.16796875 1 7 C0.75121094 8.17175781 0.50242188 9.34351563 0.24609375 10.55078125 C-0.02074219 11.79214844 -0.28757813 13.03351562 -0.5625 14.3125 C-0.83191406 15.56675781 -1.10132813 16.82101563 -1.37890625 18.11328125 C-1.58386719 19.06589844 -1.78882813 20.01851562 -2 21 C-5.96 21 -9.92 21 -14 21 C-13.525625 19.535625 -13.05125 18.07125 -12.5625 16.5625 C-11.25024395 12.27172788 -10.59803136 8.28739833 -10.40625 3.8125 C-9.28626504 -1.18435597 -3.99518451 -0.29055887 0 0 Z " fill="#0B080A" transform="translate(178,39)"/>
<path d="M0 0 C7.92 0 15.84 0 24 0 C24 1.65 24 3.3 24 5 C16.08 5 8.16 5 0 5 C0 3.35 0 1.7 0 0 Z " fill="#FF7516" transform="translate(33,31)"/>
<path d="M0 0 C7.92 0 15.84 0 24 0 C23.67 1.65 23.34 3.3 23 5 C15.74 5 8.48 5 1 5 C0.67 3.35 0.34 1.7 0 0 Z " fill="#FF7A1E" transform="translate(33,64)"/>
<path d="M0 0 C-0.55145271 5.23880078 -1.42922093 9.97350697 -3 15 C-3.99 15 -4.98 15 -6 15 C-6 14.34 -6 13.68 -6 13 C-7.32 13 -8.64 13 -10 13 C-9.07272727 3.72727273 -9.07272727 3.72727273 -7 1 C-4.50529228 0.03430669 -2.70254461 0 0 0 Z " fill="transparent" transform="translate(169,42)"/>
<path d="M0 0 C0.33 0.66 0.66 1.32 1 2 C2.65 1.67 4.3 1.34 6 1 C6.33 3.31 6.66 5.62 7 8 C0.25 10.125 0.25 10.125 -2 9 C-1.125 2.25 -1.125 2.25 0 0 Z " fill="transparent" transform="translate(179,44)"/>
<path d="M0 0 C2.625 0.375 2.625 0.375 5 1 C5.125 3.375 5.125 3.375 5 6 C4.34 6.66 3.68 7.32 3 8 C0.875 7.625 0.875 7.625 -1 7 C-1.625 4.625 -1.625 4.625 -2 2 C-1.34 1.34 -0.68 0.68 0 0 Z " fill="#1A1010" transform="translate(176,30)"/>
<path d="M0 0 C0.66 0 1.32 0 2 0 C2.042721 1.66611905 2.04063832 3.33382885 2 5 C1 6 1 6 -0.84765625 6.09765625 C-2.8984375 6.06510417 -4.94921875 6.03255208 -7 6 C-6.67 5.34 -6.34 4.68 -6 4 C-3.4375 3.375 -3.4375 3.375 -1 3 C-0.67 2.01 -0.34 1.02 0 0 Z " fill="#E96A0F" transform="translate(112,42)"/>
</svg>
